<svg xmlns="http://www.w3.org/2000/svg" width="29" height="28" fill="none" viewBox="0 0 29 28">
  <path fill="#B9B7A6" d="M14.5 0a14.488 14.488 0 0 0-9.394 3.4 14.329 14.329 0 0 0-4.92 8.65A14.278 14.278 0 0 0 2.1 21.801a14.421 14.421 0 0 0 7.829 6.18c.721.119.962-.36.962-.718v-2.392c-3.97.837-4.812-1.913-4.812-1.913-.722-1.674-1.684-2.152-1.684-2.152-1.203-.837.12-.837.12-.837 1.444 0 2.286 1.434 2.286 1.434 1.203 2.153 3.368 1.555 4.21 1.196 0-.956.482-1.554.842-1.913-3.248-.359-6.616-1.555-6.616-7.175a5.23 5.23 0 0 1 1.564-3.707c-.24-.478-.722-1.913 0-3.826 0 0 1.203-.359 4.09 1.435a13.915 13.915 0 0 1 7.218 0c2.767-1.794 3.97-1.435 3.97-1.435.722 1.913.24 3.348 0 3.827 1.082.956 1.564 2.272 1.564 3.826 0 5.5-3.369 6.696-6.617 7.055.602.478 1.083 1.196 1.083 2.63v3.947c0 .358.12.837.962.717a14.421 14.421 0 0 0 7.83-6.179 14.278 14.278 0 0 0 1.912-9.753 14.329 14.329 0 0 0-4.92-8.65A14.488 14.488 0 0 0 14.5 0Z"/>
</svg>
