<svg xmlns="http://www.w3.org/2000/svg" width="29" height="28" fill="none" viewBox="0 0 29 28">
  <path fill="#B9B7A6" d="M25.778 0c.854 0 1.674.328 2.278.911a3.06 3.06 0 0 1 .944 2.2V24.89a3.06 3.06 0 0 1-.944 2.2 3.282 3.282 0 0 1-2.278.911H3.222a3.282 3.282 0 0 1-2.278-.911A3.058 3.058 0 0 1 0 24.89V3.11c0-.825.34-1.616.944-2.2A3.282 3.282 0 0 1 3.222 0h22.556Zm-.806 24.111v-8.244a4.984 4.984 0 0 0-1.538-3.586 5.349 5.349 0 0 0-3.714-1.485c-1.37 0-2.964.808-3.738 2.022V11.09h-4.495v13.02h4.495v-7.669c0-1.198 1-2.178 2.24-2.178a2.3 2.3 0 0 1 1.595.638c.423.409.66.963.66 1.54v7.67h4.495ZM6.252 8.65c.717 0 1.405-.275 1.913-.766.508-.49.793-1.154.793-1.847 0-1.447-1.209-2.63-2.707-2.63-.722 0-1.415.278-1.925.77a2.584 2.584 0 0 0-.798 1.86c0 1.446 1.225 2.613 2.723 2.613m2.24 15.462v-13.02H4.028v13.02H8.49Z"/>
</svg>
