<svg xmlns="http://www.w3.org/2000/svg" width="36" height="28" fill="none" viewBox="0 0 36 28">
  <path fill="#B9B7A6" fill-rule="evenodd" d="M2.603.075C1.326.46.1 1.83.107 2.862c.002.324 17.357 11.15 17.872 11.15.515 0 17.87-10.826 17.872-11.15.007-.815-.907-2.04-1.91-2.565l-.525-.274-15.25-.02C9.78-.01 2.776.022 2.603.074ZM.007 15.997c.034 9.326.038 9.444.3 9.998.32.676.99 1.355 1.707 1.73l.528.275h30.875l.527-.276c.717-.374 1.387-1.053 1.707-1.729.33-.696.5-19.496.175-19.415-.088.022-3.973 2.368-8.634 5.212-4.66 2.845-8.646 5.22-8.856 5.279-.631.177-.93.012-9.712-5.361C3.994 8.877.154 6.56.089 6.56c-.072 0-.104 3.61-.082 9.437Z" clip-rule="evenodd"/>
</svg>
